<?xml version="1.0" encoding="UTF-8" standalone="no"?>
<!-- Created with Inkscape (http://www.inkscape.org/) -->

<svg
   width="341.66785mm"
   height="341.66949mm"
   viewBox="0 0 341.66784 341.66951"
   version="1.1"
   id="svg5"
   inkscape:version="1.1 (c68e22c387, 2021-05-23)"
   sodipodi:docname="caprichos.svg"
   xmlns:inkscape="http://www.inkscape.org/namespaces/inkscape"
   xmlns:sodipodi="http://sodipodi.sourceforge.net/DTD/sodipodi-0.dtd"
   xmlns="http://www.w3.org/2000/svg"
   xmlns:svg="http://www.w3.org/2000/svg">
  <sodipodi:namedview
     id="namedview7"
     pagecolor="#505050"
     bordercolor="#ffffff"
     borderopacity="1"
     inkscape:pageshadow="0"
     inkscape:pageopacity="0"
     inkscape:pagecheckerboard="1"
     inkscape:document-units="mm"
     showgrid="false"
     inkscape:zoom="0.35355339"
     inkscape:cx="731.14841"
     inkscape:cy="605.2834"
     inkscape:window-width="1366"
     inkscape:window-height="697"
     inkscape:window-x="-8"
     inkscape:window-y="-8"
     inkscape:window-maximized="1"
     inkscape:current-layer="layer1" />
  <defs
     id="defs2" />
  <g
     inkscape:label="Capa 1"
     inkscape:groupmode="layer"
     id="layer1"
     transform="translate(-393.06558,44.880011)">
    <path
       style="fill:#ffffff;fill-opacity:1;stroke:#227678;stroke-width:3;stroke-linecap:round;stroke-miterlimit:4;stroke-dasharray:none;stroke-opacity:1"
       id="path970"
       sodipodi:type="arc"
       sodipodi:cx="563.90009"
       sodipodi:cy="125.95583"
       sodipodi:rx="169.33333"
       sodipodi:ry="169.33333"
       sodipodi:start="0"
       sodipodi:end="6.228731"
       sodipodi:open="true"
       sodipodi:arc-type="arc"
       d="M 733.23341,125.95583 A 169.33333,169.33333 0 0 1 566.20525,295.27347 169.33333,169.33333 0 0 1 394.62952,130.56573 169.33333,169.33333 0 0 1 556.98632,-43.236294 169.33333,169.33333 0 0 1 732.98242,116.73947" />
    <path
       id="path3580"
       style="fill:#227678;fill-opacity:1;stroke-width:0.264583"
       d="m 488.42766,221.04416 -0.17,0.0574 -0.1695,0.0568 -3.1378,3.58531 -3.1373,3.58532 -1.0206,1.22782 -1.0206,1.22733 -0.7917,0.8754 -0.7922,0.8759 -1.2015,1.39578 -1.2019,1.39528 0.1038,0.0992 0.1039,0.0987 1.3177,1.08522 1.3183,1.08519 h 0.1617 0.1623 l 1.8273,-2.17144 1.8273,-2.17093 1.1947,-1.29138 1.1948,-1.2914 0.4594,0.50797 0.4599,0.50747 -2.1642,2.5926 -2.1642,2.5926 -0.7467,0.81804 -0.7473,0.81804 v 0.17055 0.17052 l 1.3876,1.24333 1.3875,1.24386 0.6309,-0.7457 0.631,-0.74517 1.2226,-1.43555 1.2227,-1.43558 0.3969,-0.42479 0.3969,-0.42529 3.0587,-3.56309 3.0587,-3.56362 0.5132,-0.62476 0.5131,-0.62476 0.3773,-0.39481 0.3767,-0.39482 -1.4356,-1.29706 -1.4351,-1.2976 -0.6614,0.74414 -0.6615,0.74414 -1.4552,1.67947 -1.4552,1.6795 -0.3498,0.35655 -0.3494,0.35605 h -0.3457 -0.3457 l -0.3095,-0.37259 -0.3096,-0.37309 2.5172,-2.86805 2.5172,-2.86856 -1.3803,-1.24746 z m 149.97587,0.24648 -1.1421,1.02373 -1.1426,1.0237 0.3701,0.5271 0.3699,0.5271 1.323,1.53324 1.3229,1.53323 4.4612,5.11495 4.4607,5.11543 0.6987,-0.50022 0.6981,-0.50075 0.6026,-0.64595 0.602,-0.64543 -1.3958,-1.57718 -1.3963,-1.57715 -1.4552,-1.67691 -1.4552,-1.6774 -0.4909,-0.55759 -0.4904,-0.55761 -1.0971,-1.30894 -1.0966,-1.3095 -1.0836,-1.20404 -1.0832,-1.2046 -0.618,-0.7276 -0.6181,-0.72761 h -0.1721 z m -2.6066,7.91528 -1.1663,0.41135 -1.1659,0.41187 -1.1518,0.94361 -1.1514,0.94361 -0.4185,0.80926 -0.4186,0.80925 0.1488,0.74361 0.1488,0.74311 0.9602,1.33689 0.9601,1.33633 h 0.1943 0.1943 l 1.2294,-0.81389 1.2294,-0.81444 -0.9193,-1.36527 -0.9193,-1.36478 v -0.45114 -0.45061 l 0.2666,-0.16536 0.2671,-0.16486 0.4605,0.15761 0.461,0.15814 0.7276,1.05317 0.7276,1.05368 v 0.3297 0.3302 l -0.923,2.11357 -0.9229,2.11407 v 0.61444 0.61445 l 0.6594,1.12551 0.6599,1.12551 1.0196,1.10431 1.019,1.10432 h 0.4641 0.463 l 0.8982,-0.42632 0.8986,-0.42632 0.8366,-0.95343 0.8372,-0.95345 0.3214,-0.047 0.3209,-0.047 0.693,-0.45424 0.6935,-0.45423 -0.171,-0.27647 -0.1706,-0.27649 0.2868,0.17727 0.2874,0.17775 0.1602,-0.2594 0.1607,-0.25942 -0.6052,-0.89141 -0.6051,-0.8909 -0.9813,-1.43352 -0.9819,-1.43351 -1.9952,-2.76312 -1.9947,-2.76262 v -0.17365 -0.17312 l -0.9938,-0.44801 z m -139.79707,3.10216 -1.0083,0.4563 -1.0077,0.4563 -1.1906,1.7167 -1.1906,1.71666 -2.0846,2.90939 -2.0841,2.90938 0.1447,1.08006 0.1452,1.0795 0.7488,0.79118 0.7487,0.79066 1.323,0.7648 1.3229,0.76481 0.8769,0.003 v -0.001 l 0.8775,0.003 0.5095,-0.27234 0.509,-0.27286 1.0925,-1.47847 1.0919,-1.47846 -0.7591,-0.60873 -0.7586,-0.60928 -0.7054,-0.41961 -0.7049,-0.4196 -0.5343,0.86143 -0.5338,0.86146 -0.5597,0.59788 -0.5591,0.5979 -0.5168,-0.27646 -0.5162,-0.27646 v -0.33798 -0.33795 l 1.2164,-1.63711 1.2165,-1.63711 h 0.1483 0.1478 l 1.3472,1.02526 1.3477,1.02526 0.6434,0.33279 0.6439,0.33279 0.4144,-0.54364 0.415,-0.54414 1.388,-1.96784 1.3886,-1.96733 0.1586,-0.79426 0.1587,-0.79427 -0.4129,-0.79891 -0.4135,-0.79891 -0.8599,-0.72348 -0.8599,-0.72398 -1.3828,-0.67799 z m 10.6252,2.47631 -0.8754,1.65365 -0.8754,1.65364 -0.2197,0.0884 -0.2196,0.0878 v 0.24342 0.24286 l -1.5591,2.71148 -1.5591,2.71145 -0.5555,0.92604 -0.555,0.92604 -0.187,0.39688 -0.1871,0.39687 -1.2713,2.0955 -1.2712,2.09495 1.5198,0.86145 1.5198,0.86143 0.045,-0.046 0.046,-0.0465 0.911,-1.5875 0.9106,-1.5875 2.4603,-4.23333 2.4603,-4.23333 0.5343,-0.92605 0.5338,-0.92604 0.7431,-1.32291 0.7426,-1.32292 0.01,-0.15658 0.01,-0.15605 -1.293,-0.70385 -1.2924,-0.70331 h -0.2579 z m -9.3271,0.47027 0.3932,0.32658 0.3938,0.3266 v 0.17933 0.17982 l -1.0537,1.62163 -1.0537,1.6216 -0.2108,0.1297 -0.2103,0.13023 -0.5984,-0.45167 -0.5985,-0.45112 1.124,-1.67433 1.124,-1.67378 0.3452,-0.13229 z m 127.54457,0.58807 -1.05,0.9989 -1.0496,0.99841 -0.2449,-0.0816 -0.245,-0.0812 -1.4603,0.8387 -1.4609,0.83873 1.0604,1.88204 1.0604,1.88206 0.4397,0.66145 0.4403,0.66146 0.3282,0.66146 0.3281,0.66146 0.3204,0.53485 0.3204,0.53433 1.296,2.2438 1.2955,2.24327 0.3639,0.59531 0.3638,0.59531 h 0.1261 v 0.002 h 0.1261 l 1.3193,-0.7276 1.3193,-0.7276 v -0.19532 -0.19534 l -3.2066,-5.58467 -3.2065,-5.58469 0.4336,-0.43355 0.4331,-0.43307 0.4578,0.28681 0.4584,0.28681 2.0438,3.54502 2.0438,3.5455 0.01,0.33072 0.01,0.33073 h 0.2078 0.2077 l 0.7845,1.45418 0.7844,1.45418 h 0.2284 0.2289 l 1.2925,-0.70332 1.2929,-0.70382 v -0.30181 -0.30178 l -0.233,-0.25164 -0.2331,-0.25117 -2.5823,-4.49792 -2.5817,-4.49792 -0.5204,-0.92604 -0.5204,-0.92604 -0.2692,-0.33073 -0.2688,-0.33073 h -1.1467 z m 13.2674,1.32291 0.1685,0.01 0.1679,0.0103 1.2821,1.90429 1.2821,1.90479 -0.2521,0.4005 -0.2522,0.40047 -0.385,0.076 -0.3845,0.076 -0.4062,-0.47286 -0.4061,-0.47284 -0.8439,-1.25211 -0.8434,-1.25162 0.4367,-0.66661 z m -126.55757,4.7625 -0.7545,0.39016 -0.754,0.39018 -0.681,1.21851 -0.6817,1.21904 -0.072,0.66768 -0.073,0.66765 1.3679,0.60978 1.3679,0.60926 0.7488,-1.49707 0.7488,-1.49706 0.5963,-0.0848 0.5964,-0.0847 0.1669,0.43563 0.1674,0.43511 -0.6087,1.29916 -0.6083,1.29863 -0.4196,0.11625 -0.4196,0.11576 -2.3048,0.31059 -2.3042,0.31107 -0.555,0.48165 -0.5556,0.48162 -0.9084,2.1549 -0.909,2.15543 0.3876,0.74983 0.3881,0.74983 1.2304,0.59581 1.2299,0.59585 0.7581,-0.0217 0.7581,-0.0217 0.2046,0.36536 0.2041,0.36534 0.9235,0.39997 0.9234,0.4005 0.2656,0.0104 h 6e-4 l 0.2656,0.0103 0.3746,-0.8599 0.3747,-0.8599 1.372,-3.0427 1.372,-3.04271 0.8811,-1.85209 0.8806,-1.85208 0.011,-0.98081 0.011,-0.98134 -0.771,-0.8046 -0.7711,-0.80512 h -0.3472 -0.3473 v -0.22014 -0.22013 l -0.97,-0.29766 -0.9694,-0.29765 -0.2212,0.13642 -0.2206,0.13694 v -0.28061 -0.28009 h -0.6749 z m 102.52397,0 -1.3689,0.68215 -1.3684,0.68212 -0.6677,0.79322 -0.6677,0.79375 v 0.77825 0.77825 l 0.7075,1.58596 0.7075,1.58544 0.5493,-0.16899 0.5493,-0.16949 0.9782,-0.49353 0.9782,-0.4935 -0.6671,-1.45727 -0.6666,-1.45677 0.088,-0.46302 0.088,-0.46303 0.5659,-0.0811 0.5658,-0.0806 0.725,1.48209 0.7256,1.48207 -0.3075,0.58343 -0.307,0.5829 -0.6516,0.89247 -0.6511,0.89244 0.1684,0.27286 0.169,0.27284 -0.2764,-0.17052 -0.2765,-0.17105 -0.4527,0.95445 -0.4532,0.95449 0.1452,0.72551 0.1452,0.72554 0.7958,1.73736 0.7959,1.73736 0.4749,0.27649 0.4754,0.27647 0.7379,0.008 0.738,0.008 1.0495,-0.53536 1.0496,-0.53536 0.31,-0.49662 0.3101,-0.4966 0.3307,0.12711 0.3302,0.1266 1.2098,-0.53536 1.2102,-0.53485 v -0.2956 -0.29559 l -1.0583,-2.24843 -1.0583,-2.24846 v -0.14211 -0.1421 l -0.9504,-2.0252 -0.9498,-2.0252 -0.6738,-1.39938 -0.6734,-1.39941 -0.5519,-0.38653 -0.5519,-0.38656 h -1.2123 z m 26.3544,0.79375 h 0.1323 0.1323 v 0.13229 0.1323 h -0.1323 -0.1323 v -0.1323 z m -113.4225,1.32292 -0.3199,1.12448 -0.3204,1.12448 -0.2811,0.72297 -0.2811,0.72295 -0.6191,-0.48628 -0.6186,-0.48681 -1.1684,-0.3271 -1.16837,-0.3271 -0.7622,0.39946 -0.7622,0.39945 -0.8243,2.33732 -0.8237,2.3368 -1.0015,2.91042 -1.001,2.91042 -0.1209,1.13895 -0.1209,1.13948 0.4909,0.54258 0.4909,0.54261 0.9814,0.50128 0.9818,0.50072 h 1.0687 1.0692 v 0.22635 0.22635 l 0.8599,0.27594 0.85987,0.27596 0.4196,0.0269 0.4201,0.0269 1.8924,-5.6224 1.8924,-5.62239 1.0609,-3.12124 1.0615,-3.12179 v -0.23305 -0.23307 l -1.4299,-0.41547 -1.4299,-0.41601 h -0.2481 z m 77.3627,2.30788 -1.2816,0.2961 -1.281,0.29559 -1.0542,0.66558 -1.0542,0.66562 -0.4119,0.79581 -0.4113,0.79581 0.4206,1.44746 0.4207,1.44693 0.4134,0.82838 0.4129,0.82838 0.8501,0.35502 0.8495,0.35502 1.7622,0.32451 1.7621,0.32454 0.6625,1.32964 0.6625,1.3291 v 0.48575 0.48525 l -0.433,0.1664 -0.4331,0.16589 -0.3793,-0.2403 -0.3798,-0.24082 -0.4713,-1.39422 -0.4718,-1.39422 -0.155,-0.15505 -0.1551,-0.15502 -1.2727,0.46871 -1.2728,0.46818 -0.2279,0.19741 -0.2279,0.1974 0.5674,1.67741 0.5669,1.6769 0.3224,0.40206 0.322,0.40204 0.6614,0.30747 0.6615,0.308 0.3969,0.0145 0.3968,0.015 1.4056,-0.37415 1.4056,-0.37412 0.7111,-0.45114 0.7111,-0.45061 0.5953,-0.66818 0.5953,-0.66818 v -0.70125 -0.70125 l -0.5478,-1.62111 -0.5472,-1.62107 -0.6656,-0.66559 -0.6661,-0.66611 -2.0278,-0.33436 -2.0278,-0.33432 -0.693,-0.72814 -0.6924,-0.7276 -0.1711,-0.85627 -0.1715,-0.85577 0.3927,-0.39275 0.3927,-0.39222 0.5137,0.46459 0.5137,0.46455 0.1581,0.63045 0.1581,0.63045 0.2445,0.64339 0.2449,0.64336 1.5182,-0.50075 1.5188,-0.50126 0.096,-0.0956 0.096,-0.0961 -0.5793,-1.55649 -0.5793,-1.55599 -0.3819,-0.58806 -0.3819,-0.58809 -0.9385,-0.17621 z m -79.236,2.67787 -0.1333,0.88056 -0.1338,0.88056 -1.4842,4.34962 -1.48457,4.34909 -0.3313,0.21085 -0.3318,0.21031 h -0.1323 l -0.1323,5.1e-4 -0.3896,-0.24649 -0.3891,-0.24598 0.2904,-1.00666 0.2904,-1.00666 1.4216,-4.10104 1.42217,-4.10105 0.7586,-0.0868 z m 56.3645,0.007 -1.5394,0.21601 -1.54,0.21548 0.068,1.65364 0.068,1.65365 h -0.68 -0.6801 v 0.9462 0.94568 l 0.8599,-0.0858 0.8599,-0.0863 0.3194,2.11666 0.3198,2.11667 0.2636,2.51354 0.2635,2.51354 0.2982,1.387 0.2982,1.3865 0.6733,0.52967 0.6739,0.5302 1.4878,-0.14727 1.4877,-0.1478 0.5953,-0.12041 0.5953,-0.12041 v -1.05368 -1.05317 h -0.911 -0.9111 l -0.4118,-0.58807 -0.4119,-0.58808 v -0.85887 -0.85937 l -0.3798,-2.71973 -0.3793,-2.72026 -0.1153,-1.23867 -0.1152,-1.2387 0.9157,-0.21651 0.9157,-0.21653 -0.024,-0.19844 -0.024,-0.19844 v -0.68159 -0.68162 l -0.9121,0.0786 -0.9116,0.0785 -0.1943,-0.19378 -0.1938,-0.19431 -0.1023,-1.12086 -0.1023,-1.12138 -0.2114,-0.21548 z m -26.2599,0.50798 -0.1038,0.35864 -0.1044,0.35862 -1.4919,6.21771 -1.4919,6.2177 -0.5044,1.85209 -0.5043,1.85208 -0.1742,0.95912 -0.1741,0.95861 1.7353,0.18603 1.7358,0.18552 0.2279,-0.14107 0.2284,-0.14108 0.4832,-2.32648 0.4836,-2.32648 0.2181,-0.14571 0.2186,-0.14573 0.8971,0.10491 0.8976,0.10437 0.1845,2.60552 0.1845,2.605 0.708,0.10801 0.7074,0.10853 1.1974,0.0393 1.1978,0.0398 -0.072,-1.12448 -0.073,-1.12448 -0.4227,-4.89479 -0.4227,-4.89479 -0.339,-3.51658 -0.3385,-3.51711 -0.099,-0.0915 -0.099,-0.092 -2.4454,-0.18965 z m 37.8215,0.33176 -1.1281,0.15452 -1.1281,0.15502 -1.1761,0.56689 -1.1762,0.5674 -0.4868,0.84855 -0.4873,0.84851 0.9731,4.44315 0.973,4.44312 0.4419,1.31829 0.4423,1.31773 0.9178,0.62479 0.9178,0.62476 1.1906,-0.1478 1.1906,-0.14779 1.0459,-0.30075 1.046,-0.30076 0.8723,-0.8723 0.8723,-0.87231 -0.011,-0.75448 -0.011,-0.75396 -0.3421,-1.45521 -0.3426,-1.45521 -1.0221,0.093 -1.0227,0.093 -0.6413,0.24339 -0.6413,0.24392 0.1783,1.11879 0.1777,1.11827 0.1385,0.55761 0.139,0.55705 -0.4537,0.45373 -0.4542,0.45371 -0.3333,-0.34933 -0.3339,-0.34986 -0.5229,-1.93836 -0.5225,-1.93839 0.5633,-0.22789 0.5638,-0.22841 1.9973,-0.4191 1.9978,-0.41961 -0.8361,-3.3383 -0.8362,-3.33779 -0.6237,-0.47078 -0.6237,-0.47024 -0.7411,-0.14833 z m -60.2387,0.25321 -0.6423,0.59584 -0.6429,0.59531 -0.5736,2.24896 -0.5731,2.24843 -0.4356,1.98437 -0.4351,1.98438 -0.2393,0.76739 -0.2393,0.7669 v 0.77978 0.77928 l 0.4388,0.74311 0.4387,0.7426 1.2149,0.53846 1.2149,0.53848 0.3969,0.12763 0.3969,0.12764 1.1415,0.0212 1.1421,0.0207 0.5777,-0.30748 0.5783,-0.30797 0.3219,-0.41963 0.3225,-0.42013 0.3906,-1.32292 0.3907,-1.32292 0.9385,-4.20129 0.9384,-4.20129 -0.5648,-1.0046 -0.5643,-1.00457 -1.3209,-0.5488 -1.3203,-0.54882 h -1.6459 z m 83.9013,0 0.2781,0.004 0.278,0.003 0.8511,1.98128 0.8516,1.98178 -0.1524,0.39584 -0.1519,0.39635 h -0.5783 -0.5778 l -0.7167,-1.56062 -0.7162,-1.56115 v -0.50281 -0.50282 l 0.3172,-0.31729 z m -104.88137,0.49712 -0.2439,0.61135 -0.2439,0.61132 -0.5587,1.19062 -0.5591,1.19063 -0.217,0.39687 -0.2176,0.39688 -0.3927,0.0775 -0.3928,0.0775 -0.31,-0.37362 -0.3101,-0.37365 0.7746,-1.82054 0.7752,-1.82057 0.9477,-0.0822 z m 79.11137,0.032 h 0.1323 0.1323 v 0.13229 0.13229 h -0.1323 -0.1323 v -0.13227 z m -82.02077,0.52917 h 0.1323 0.1323 v 0.13229 0.13229 h -0.1323 -0.1323 v -0.13229 z m 25.95807,1.02526 0.5809,0.0827 0.5808,0.0827 0.079,0.67593 0.078,0.67593 -1.063,4.57957 -1.0635,4.57904 -0.3044,0.36742 -0.3049,0.3669 h -0.1994 -0.2 l -0.3127,-0.37671 -0.3126,-0.37672 0.1783,-1.01235 0.1778,-1.01234 0.5958,-2.38125 0.5958,-2.38125 0.1716,-0.91157 0.1716,-0.91157 0.2754,-1.0232 z m 56.3273,0.0331 h 0.6331 0.633 l 0.1225,0.33073 0.123,0.33073 0.3503,1.78234 0.3504,1.78231 -0.1142,0.10284 -0.1137,0.10335 -0.5968,0.18343 v 0 l -0.5964,0.18347 -0.124,-0.34933 -0.124,-0.34883 -0.2651,-1.19063 -0.2651,-1.19062 -0.01,-0.8599 z m 29.8979,0.79375 h 0.1323 0.1323 v 0.13229 0.13229 h -0.1323 -0.1323 v -0.13229 z m -48.5453,0.21034 -1.5906,0.15243 -1.5901,0.15298 -2.0288,0.0728 -2.0288,0.0729 -0.1365,0.13645 -0.1359,0.13642 0.2346,2.90628 0.2347,2.90627 0.2878,3.83646 0.2884,3.83645 0.155,0.88625 0.1555,0.88628 1.4867,-0.18503 1.4873,-0.18499 0.2284,-0.14055 0.2289,-0.14004 -0.1633,-1.48675 -0.1632,-1.48725 -0.2621,-3.96875 -0.262,-3.96875 -0.1436,-0.84542 -0.1432,-0.84593 0.4863,-0.26045 0.4868,-0.25993 0.3282,0.20256 0.3281,0.2031 0.1586,1.89394 0.1592,1.89394 1.7477,-0.16433 1.7477,-0.16434 0.029,-0.0326 0.029,-0.0331 -0.1287,-2.312 -0.1286,-2.31199 -0.692,-0.69196 z m 15.737,0.0542 h 0.1323 0.1323 v 0.13229 0.1323 h -0.1323 -0.1323 v -0.1323 z m 19.8438,1.32292 h 0.1322 0.1323 v 0.13229 0.13229 h -0.1323 -0.1322 v -0.13229 z m -50.9944,0.80616 0.2295,0.1416 0.2294,0.14211 v 2.76209 2.76262 h -0.6459 -0.646 l -0.1111,-0.19844 -0.1111,-0.19843 0.3499,-1.5875 0.3503,-1.5875 0.1773,-1.11826 z" />
    <path
       id="path2793"
       style="fill:#227678;fill-opacity:1;stroke-width:0.264583"
       d="m 580.5307,-24.44558 -0.9839,0.50179 -0.9834,0.50178 -0.5933,1.05524 -0.5932,1.05574 v 0.802 0.80254 l 0.1586,0.41291 0.1582,0.41341 0.9286,0.57361 0.9286,0.57412 0.831,0.19791 0.8315,0.19844 1.3229,0.0259 v 5e-4 l 1.3229,0.0258 0.878,-0.53536 0.8774,-0.53538 0.5328,-1.20407 0.5328,-1.20404 -0.2238,-0.9457 -0.2237,-0.94617 -0.6578,-0.48784 -0.6574,-0.48834 -1.5342,-0.39738 -1.5343,-0.39741 h -0.6594 z m -15.6538,6.56757 -0.9596,0.17725 -0.9602,0.17777 -1.3823,0.78703 -1.3818,0.78753 -1.2062,1.37356 -1.2061,1.37358 -1.4464,2.16885 -1.447,2.1693703 v 0.26252 0.26305 l -0.293,0.18087 -0.293,0.18137 0.1907,-0.62839 0.1902,-0.62889 0.725,-1.5875003 0.7245,-1.5875 0.9653,-1.50844 0.9653,-1.50844 v -0.11266 -0.11266 l -1.2583,-0.54105 -1.2583,-0.54104 -1.5896,-0.17984 -1.5895,-0.17984 -1.0863,0.2925 -1.0867,0.2925 -0.6605,0.51935 -0.6599,0.51932 -0.8227,2.32392 -0.8232,2.32388 -0.5684,3.0427103 -0.5685,3.04271 0.1251,3.175 0.1256,3.175 0.6041,1.3952495 0.6041,1.39526 0.7787,0.65526 0.7788,0.65527 h 1.6635 1.6634 l 0.3416,-1.65364 0.3416,-1.6536495 0.7819,-2.24432995 0.7823,-2.24480005 1.2062,-2.25311 1.2056,-2.25359 1.4066,-1.76684 1.4066,-1.7668103 0.5307,-0.16846 0.5313,-0.16848 0.2666,0.16486 0.2672,0.16536 v 1.1658103 1.16583 l -0.7938,0.90382 -0.7937,0.90435 v 0.16743 0.16689 l 0.8599,0.52454 0.8599,0.52451 0.7447,10e-4 0.7451,5.3e-4 0.5778,-0.29662 0.5782,-0.29716 0.7333,-0.68418 0.7333,-0.68421 0.6982,-1.46606 0.6976,-1.46656 0.1173,-2.7869103 0.1173,-2.78744 -0.4031,-0.96583 -0.4036,-0.96531 -0.8464,-0.4377 z m 12.3646,0.78547 -1.1705,0.31472 -1.1709,0.31573 -0.6801,0.73848 -0.6796,0.73895 -0.9741,1.95027 -0.974,1.94977 -0.7824,1.7197903 -0.7819,1.71979 -0.7405,2.11667 -0.7405,2.11667 -0.094,2.91041005 -0.094,2.91041995 0.6072,1.0583295 0.6072,1.05834 1.1895,0.61288 1.1896,0.61235 1.2175,-0.10697 1.2176,-0.10697 1.2515,-0.60563 1.2516,-0.60619 1.6098,-1.4872495 1.6097,-1.48722 0.7452,-1.02525995 0.7451,-1.02579 0.1225,0.36433 0.122,0.3638 0.1302,1.32291995 0.1297,1.32291 0.1054,0.5291695 0.1054,0.52917 0.5674,0.93842 0.5675,0.93795 0.7333,0.53123 0.7332,0.5307 1.4123,0.59894 1.4124,0.59841 1.7626,0.14779 1.7627,0.14727 1.648,-0.4222 1.6474,-0.42269 1.1224,-0.70848 1.1225,-0.7085 1.3968,-1.32085 1.3973,-1.32136 v 0.16124 0.16174 l -0.4258,1.25264 -0.4253,1.25315 0.1157,1.20613 0.1163,1.20613 0.3757,0.76739 0.3757,0.7668702 0.9462,0.76121 0.9462,0.76068 0.9059,0.13589 0.9059,0.13541 1.4681,-1.26918 1.4681,-1.2696802 1.1478,-0.92605 1.1482,-0.92604 1.0961,-0.92604 1.096,-0.92604 1.8764,-1.38906 1.8764,-1.3890595 h 0.1695 0.1695 l -0.6946,1.0996595 -0.694,1.10019 -0.6124,1.15083 -0.6118,1.15136 -0.5493,1.58647 -0.5488,1.5864702 v 1.5477 1.54718 l 0.5953,0.87953 0.5953,0.87902 1.1906,0.63717 1.1906,0.6377 1.6821,-0.16486 v 0.003 l 1.6821,-0.16486 1.6877,-0.7648 1.6878,-0.76534 1.5694,-1.20766 1.5694,-1.20769 0.9581,-1.1193 0.9581,-1.11985 0.3865,-0.7740902 0.3865,-0.77464 v -0.22426 -0.22376 h -0.3353 -0.3354 l -1.3183,1.14514 -1.3182,1.1446402 -1.7198,1.14205 -1.7198,1.14205 -1.3048,0.46455 -1.3049,0.46458 -0.3684,-0.1416 -0.369,-0.14158 0.1679,-0.66765 0.1675,-0.66768 1.0242,-1.42988 1.0237,-1.4303902 1.2754,-1.48519 1.2759,-1.48571 2.1166,-2.11305 2.1167,-2.1130395 0.5953,-0.8015 0.5953,-0.80149995 v -0.84233 -0.84233005 l -0.3808,-0.91104 -0.3809,-0.91106 -1.0226,-0.70901 -1.0222,-0.70847 h -1.1767 -1.1761 l -1.0584,0.29144 -1.0583,0.29093 -1.9472,0.909 -1.9471,0.90848 -2.4185,1.60816005 -2.4185,1.60816995 -2.3151,1.82057 -2.3151,1.8205695 h -0.1503 -0.1504 l 0.5989,-0.8599 0.599,-0.8598895 1.5998,-1.98437995 1.5999,-1.98437005 3.5084,-3.87988 3.5083,-3.88038 2.1652,-2.0112603 2.1653,-2.01175 -1.0367,-1.06143 -1.0366,-1.06143 -1.6133,-0.786 -1.6129,-0.786 h -1.3782 -1.3777 l -1.5177,1.52136 -1.5172,1.52135 -1.5379,1.71979 -1.5379,1.71979 -1.4898,1.9843803 -1.4899,1.98437 -0.2739,0.30435 -0.2733,0.30438 -1.4552,2.13114 -1.4552,2.13064 -0.3757,-0.1292 -0.3762,-0.12869 -0.1695,0.27389 -0.1695,0.27440005 -1.8552,1.91772995 -1.8552,1.9172 -0.9069,0.6888395 -0.9064,0.68831 -0.7938,0.39894 -0.7937,0.39947 -1.1302,0.17312 -1.1296,0.17311 -0.723,-0.37414 -0.7229,-0.37362 -0.5287,-0.58394 -0.5281,-0.58446 0.062,-1.4148895 0.062,-1.41490995 0.7064,-1.79835005 0.707,-1.79832 1.125,-1.60094 1.125,-1.60094 1.0185,-0.91985 1.018,-0.91982 0.8754,-0.36277 0.8754,-0.36277 0.4191,0.4191 0.4186,0.41907 -0.6888,1.40819 -0.6889,1.40819 -0.8201,0.48472 -0.8196,0.48421 0.098,0.29507 0.098,0.29509 0.9079,0.23614 0.9085,0.23566 1.0578,-0.14107 1.0578,-0.14108 0.5685,-0.66095 0.5684,-0.66093 0.1597,0.11522 0.1597,0.11526 -0.1121,-0.15608 -0.1122,-0.15605 0.3767,-1.06765 0.3767,-1.06762 v -1.24283 -1.2423 l -0.4118,-1.2087203 -0.4119,-1.20869 -1.1095,-1.03148 -1.1095,-1.03145 -1.4092,-0.32041 -1.4092,-0.32089 h -0.9415 -0.9416 l -1.0888,0.31985 -1.0888,0.31988 -1.5007,0.87128 -1.5007,0.87177 -1.3632,1.52033 -1.3627,1.5208503 -0.3871,0.79375 -0.387,0.79375 -0.4269,0.79375 -0.4263,0.79375 -1.3379,1.71979 -1.3384,1.71979 -1.5741,1.80142005 -1.5741,1.80196995 -0.9513,0.47646 -0.9509,0.47696 -0.3307,-0.11731 -0.3307,-0.11782 v -0.49144 -0.49143995 l 0.6521,-1.80144 0.6522,-1.80194005 1.4666,-2.84274 1.4671,-2.84324 0.9653,-1.52238 0.9648,-1.5228903 1.1673,-1.54774 1.1674,-1.54821 -0.1473,-0.38343 -0.1472,-0.38346 -1.3922,-0.62476 -1.3922,-0.62529 -1.4567,-0.31523 z m -40.8378,1.36787 -1.203,0.30284 -1.2031,0.30335 -0.9983,1.0945 -0.9984,1.0945 -0.4491,0.66146 -0.4491,0.66146 -0.014,-0.70951 -0.014,-0.71004 -0.5953,-0.19171 -0.5953,-0.19175 h -1.4552 l -1.4552,0.01 -1.1457,0.31728 -1.1456,0.31676 -0.9421,0.86302 -0.9421,0.8635 0.039,5.8012003 0.039,5.80170005 -0.2621,-0.39687 -0.2625,-0.39688 v -0.54464 -0.54468005 l -0.3566,-0.48783 -0.3566,-0.48731 -0.1932,0.31316 -0.1938,0.31263 -0.2372,2.57143005 -0.2377,2.57140945 -0.4222,1.7472 -0.4222,1.74718 -0.5059,0.83251 -0.5065,0.83248 h -0.3798 -0.3793 l -0.401,-1.25677 -0.401,-1.25677 -0.3478,-1.5875 -0.3478,-1.5874995 v -6.54844 -6.5484303 h -1.1906 -1.1906 l -1.2222,0.3710503 -1.2221,0.37052 -1.1033,0.56327 -1.1033,0.56274 -0.5178,0.84905 -0.5178,0.84958 -0.001,0.7276 v 0.72761 h -0.1183 -0.1183 l -1.2439,-0.66146 -1.2444,-0.66146 h -0.7441 -0.7446 l -1.462,0.54724 -1.46237,0.54673 -1.2041,1.2046 -1.2046,1.20404 -0.4847,0.96067 -0.4847,0.96068 -0.4305,1.49603005 -0.4305,1.49550995 v 2.5765895 2.57659 l 0.5551,1.881 0.555,1.8805302 0.8227,1.55546 0.8232,1.55546 1.1653,1.1653 1.16527,1.16531 0.9622,0.41134 0.9627,0.41082 1.7296,-0.11575 1.7296,-0.11629 0.9529,-0.62476 0.9535,-0.62476 0.8035,-1.20044 0.8041,-1.20044 0.3256,-1.12448 0.3255,-1.12448 h 0.058 0.059 l 1.0836,1.05161 1.0837,1.05162 0.7343,0.15502 0.7343,0.15451 0.4775,0.0951 0.4775,0.0951 1.1679,-0.39793 1.1684,-0.39791 0.802,-0.91363 0.8025,-0.91363 0.6625,-1.3074102 0.6625,-1.30794 0.2889,-1.34668 0.2888,-1.3467 0.1225,0.12247 0.123,0.12301 -0.2889,2.2107 -0.2888,2.2102202 -0.3964,1.80454 -0.3963,1.80454 -0.5483,1.16683 -0.5483,1.16687 -0.8279,0.80925 -0.8278,0.80926 -0.615,0.15452 -0.6154,0.15398 -0.907,-0.14676 -0.9069,-0.14727 -0.1333,0.21601 -0.1333,0.216 0.5457,0.69401 0.5462,0.69453 0.5746,0.30903 0.5752,0.3085 0.7937,0.20463 0.7938,0.20466 1.6924,-0.12404 v 0.009 l 1.6924,-0.12453 0.8728,-0.41395 0.8729,-0.41391 1.2164,-1.30069 1.2165,-1.30072 0.8077,-1.78488 0.8082,-1.7849 0.6356,-2.4815 0.6356,-2.4810002 v -0.89244 -0.89194 h 0.2739 0.2739 l 0.7002,0.45837 0.6997,0.45889 1.4738,-0.0104 1.4733,-0.01 1.3886,-0.47078 1.3885,-0.4713 1.2847,-1.23558 1.2852,-1.23557 0.6832,-1.19063 0.6836,-1.1906195 0.5457,-1.97921995 0.5457,-1.97869005 v -3.04839 l -0.01,-3.04787 -0.3881,-1.83245 -0.3881,-1.8324503 -0.8314,-1.3715 -0.831,-1.37096 -0.694,-0.4005 -0.6945,-0.39997 -0.9736,-0.17465 z m 48.1169,0.27443 v 0.13229 0.13229 h 0.1323 0.1323 v -0.13229 -0.13229 h -0.1323 z m -2.1166,0.79375 h 0.1323 0.1323 v 0.13229 0.13229 h -0.1323 -0.1323 v -0.13229 z m -49.5127,4.8947903 0.4594,0.28006 0.4594,0.28009 0.3322,0.95911 0.3323,0.95912 0.1664,2.33992 0.1669,2.33989 -0.2795,1.84486005 -0.2791,1.84485995 -0.3111,1.19063 -0.3106,1.1906195 -0.6464,0.8599 -0.6465,0.8599 h -0.3245 -0.3246 l -0.5038,-0.55658 -0.5039,-0.55706 V -0.19796965 -4.4700397 l 0.4791,-1.86758 0.479,-1.86812 0.6279,-0.77825 z m -49.44297,4.02867 -1.6888,0.13539 -1.6893,0.13592 -1.3767,0.7493 -1.3771,0.74933 -1.0413,1.04126 -1.0413,1.0413 -0.7922,1.17356005 -0.7922,1.17358 -0.4114,0.97149995 -0.4118,0.97102 -0.3411,1.0583295 -0.341,1.05834 -0.3664,1.5875 -0.3664,1.5875 0.015,3.4395802 0.016,3.43958 0.4723,2.36366 0.4729,2.36368 0.8076,2.39882 0.8078,2.39884 0.9958,1.90789 0.9958,1.90738 1.2128,1.57665 1.2129,1.57612 1.1255,0.971 1.126,0.97049 1.0583,0.54621 1.0584,0.5457 0.6614,0.20206 0.6615,0.20206 1.8826,0.0227 v -5e-4 l 1.8825,0.0233 1.863,-0.93173 1.8629,-0.93225 1.5462,-1.65778 1.5461,-1.65777 0.5292,-1.04852 0.5291,-1.04799 0.1592,-0.13229 0.1592,-0.13229 0.5638,-1.71979 0.5638,-1.71979 0.264,-1.85209 0.2641,-1.85208 -0.018,-2.64583 -0.017,-2.64584 -0.2129,-1.45521 -0.213,-1.4552 -0.3255,-1.6743402 -0.3261,-1.67431 -0.3762,-0.14417 -0.3762,-0.1447 -0.1535,0.15348 -0.1535,0.15349 0.045,4.4777502 0.045,4.47726 -0.5679,2.30735 -0.5685,2.30735 -0.6046,1.36734 -0.6046,1.36686 -0.9777,1.18647 -0.9783,1.186 -1.1953,0.56946 -1.1952,0.56896 -0.8124,-0.23254 -0.8118,-0.23307 -0.9938,-0.65733 -0.9937,-0.65784 -1.1844,-1.66293 -1.1844,-1.66346 -1.0413,-2.51354 -1.0408,-2.51354 -0.555,-2.11667 -0.5555,-2.11667 -0.3194,-2.05674 -0.3198,-2.0567102 0.1503,-3.49954 0.1504,-3.4995095 0.5028,-1.74976995 0.5028,-1.74926 0.5235,-0.89554005 0.523,-0.89606 0.6367,-0.31732 0.6366,-0.31728 0.356,0.29559 0.3566,0.29559 0.401,0.94724 0.401,0.94723005 0.2166,2.86905995 0.217,2.8690895 -0.3411,2.68716 -0.3405,2.6871902 -0.4248,0.9834 -0.4243,0.98391 v 0.17674 0.17672 l 1.1912,-0.1633 1.1916,-0.16328 1.0687,-0.5452 1.0682,-0.54467 0.9069,-0.96168 0.9074,-0.9617102 0.4708,-0.94567 0.4713,-0.94568 -0.03,-2.77812 -0.03,-2.7781295 -0.6899,-1.68517995 -0.6904,-1.68569005 -0.6686,-0.87643 -0.6688,-0.87693 -0.011,-0.21601 -0.011,-0.21601 -0.88,-0.56017 -0.8806,-0.56018 -1.2258,-0.4682 z m 76.73067,1.92445 v 0.13229 0.1323 h 0.1323 0.1323 v -0.1323 -0.13229 h -0.1323 z m -53.6985,2.11667 h 0.3446 0.3447 l 0.5312,0.59531 0.5313,0.59531005 0.431,1.19063 0.431,1.19061995 0.341,1.8520895 0.3406,1.85208 -0.014,2.64583 -0.013,2.6458402 -0.339,0.99425 -0.3385,0.99425 -0.4899,0.26199 -0.4893,0.26199 -0.4563,-0.4563 -0.4563,-0.4563 -0.6181,-1.39682 -0.6175,-1.3968102 -0.4491,-3.19876 -0.4491,-3.19879 0.3235,-1.8877195 0.324,-1.88774995 0.3933,-0.60047005 z m 70.6318,0.26458 v 0.13229 0.1323 h 0.1323 0.1323 v -0.1323 -0.13229 h -0.1323 z m 24.0771,0.52917005 h 0.1323 0.1323 v 0.13229 0.13229 h -0.1323 -0.1323 v -0.13229 z m 1.0583,0 h 0.1323 0.1323 v 0.13229 0.13229 h -0.1323 -0.1323 v -0.13229 z m -1.8521,2.11666995 h 0.1323 0.1323 v 0.13229 0.13229 h -0.1323 -0.1323 v -0.13229 z m -24.6062,1.32291 h 0.1323 0.1323 v 0.13229 0.1323 h -0.1323 -0.1323 v -0.1323 z m 0.2646,1.3229195 h 0.1323 0.1323 v 0.13229 0.13229 h -0.1323 -0.1323 v -0.13229 z m 66.4104,0 v 0.13229 0.13229 h 0.1323 0.1323 v -0.13229 -0.13229 h -0.1323 z m -7.276,0.66558 -1.4553,0.64233 -1.4552,0.64183 -1.3409,0.84336 -1.3405,0.84283 -1.4124,1.42317 -1.4118,1.4231902 -0.9958,1.52858 -0.9958,1.52857 -0.5508,1.63195 -0.5509,1.63143 v 1.21957 1.21957 l 0.6614,1.30894 0.6615,1.30847 1.1126,0.79375 1.1131,0.79375 0.5405,0.23358 0.5411,0.23357 1.3229,0.35502 1.3229,0.35449 1.4594,-0.11473 -5e-4,0.004 1.4593,-0.11472 1.7157,-0.53073 1.7156,-0.53123 1.4366,-0.90691 1.4366,-0.90692 1.7896,-1.78906 1.789,-1.78953 1.0072,-1.98438 1.0077,-1.9849 V 11.56551 9.2922598 l -0.4419,-0.80975 -0.4413,-0.80979 -0.879,-0.86764 -0.879,-0.86765 -1.323,-0.70382 -1.3229,-0.70332 h -2.6458 z m -10.4511,0.92192 v 0.13229 0.13229 h 0.1323 0.1323 v -0.13229 -0.13229 h -0.1323 z m -30.1625,3.175 v 0.13229 0.13229 h 0.1323 0.1323 v -0.13229 -0.13229 h -0.1323 z m -1.5875,0.52916 v 0.1323 0.13229 h 0.1323 0.1323 v -0.13229 -0.1323 h -0.1323 z m 46.2845,2.1166702 h 1.0579 1.0578 l 0.2739,0.5121 0.2738,0.5116 v 0.44029 0.4408 l -0.432,0.91001 -0.432,0.91053 -1.1715,1.30226 -1.171,1.30275 -1.8392,1.33792 -1.8391,1.33789 -1.2542,0.49094 -1.2537,0.49144 -0.7937,0.1416 -0.7938,0.14108 -0.6614,-0.18503 -0.6615,-0.18499 -0.087,-0.75086 -0.087,-0.75034 0.8552,-1.22317 0.8547,-1.22369 1.0842,-1.14311 1.0842,-1.14255 1.5875,-1.13636 1.5875,-1.13585 1.3803,-0.69763 z m 11.6743,5.22293 -1.4625,0.71572 -1.463,0.7157 v 0.26099 0.26043 l -0.2092,-0.12917 -0.2088,-0.1292 -0.7271,1.14927 -0.7266,1.14877 -0.1602,1.35289 -0.1602,1.3529 0.6109,3.13883 0.6113,3.1383 -0.3307,0.79788 -0.3302,0.7979 -0.4414,0.11213 -0.4413,0.11163 -0.7979,-0.21034 -0.7978,-0.21032 -0.953,-1.00097 -0.9534,-1.00045 -0.2992,-0.89968 -0.2997,-0.89919 v -0.27284 -0.27286 l 1.2449,-1.15909 1.2448,-1.15962 -0.2899,-0.44648 -0.2899,-0.44648 -0.9823,0.061 -0.9824,0.061 -0.8806,0.54414 -0.8811,0.54467 -0.8113,1.22526 -0.8118,1.22577 v 1.28621 1.28572 l 0.4098,0.98393 0.4098,0.98341 1.6092,1.51876 1.6092,1.51929 1.4531,0.71054 0.9007,0.44079 c 0.1999,0.0931 0.4005,0.1864 0.601,0.28009 l 0.9106,0.18812 0.9601,0.19844 1.4521,-0.14005 v 0.009 l 1.4527,-0.13952 0.9539,-0.4868 0.954,-0.48678 0.8676,-0.98857 0.8682,-0.98858 0.3638,-0.87022 0.3638,-0.87074 v -1.48932 -1.48984 l -0.7276,-2.7745 -0.7276,-2.77503 0.6242,-0.50644 0.6248,-0.50694 h 0.4025 0.4026 l 0.8615,0.91363 0.8619,0.91366 0.3152,1.31361 0.3147,1.3131 -0.2852,0.53382 -0.2858,0.5338 v 0.26408 0.26405 l 0.5158,0.16383 0.5162,0.16381 1.0749,-0.28938 1.0748,-0.2894 0.9364,-0.82217 0.9359,-0.82166 0.416,-0.8046 0.416,-0.80407 -0.024,-1.17358 -0.023,-1.17356 -0.3937,-0.6005 -0.3933,-0.59994 -0.8723,-0.94155 -0.8723,-0.94207 -1.034,-0.69454 -1.0336,-0.694 -1.3477,-0.53795 -1.3472,-0.53795 -2.0428,-0.01 z m -17.7421,2.71457 v 0.13229 0.13229 h 0.1323 0.1323 v -0.13229 -0.13229 h -0.1323 z" />
    <path
       id="path2638"
       style="fill:#851740;fill-opacity:1;stroke-width:0.264583"
       d="m 567.82193,45.720538 -1.6929,0.57981 -1.6935,0.58034 -2.5135,1.27796 -2.5135,1.27744 -1.5875,0.88831 -1.5875,0.88884 -2.1167,1.28003 -2.1167,1.28003 -1.9843,1.32291 -1.9844,1.32292 -1.9844,1.45418 -1.9844,1.45417 -2.2536,2.27222 -2.2536,2.27168 -1.2221,1.85209 -1.2222,1.85208 -0.2671,0.52917 -0.2667,0.52916 -0.7162,2.11667 -0.7162,2.11667 -0.013,2.64583 -0.013,2.64583 0.4573,1.70376 0.4569,1.70379 0.5245,1.02835 0.5245,1.02786 -0.082,0.41753 -0.082,0.41754 -1.2036,0.68678 -1.204,0.68731 -1.3488,0.86559 -1.3492,0.86608 -1.4279,1.64746 -1.4273,1.64795 -0.9462,1.45521 -0.9456,1.45521 -0.6041,1.19063 -0.6041,1.19062 -0.3752,1.32292 -0.3757,1.32291 -0.4888,2.116672 -0.4894,2.11667 -0.1773,1.71979 -0.1772,1.71979 0.3007,1.71979 0.3013,1.71979 0.4201,1.30122 0.4207,1.30173 v 1.87327 l 0.01,1.87378 -0.5483,2.11667 -0.5483,2.11667 -1.2216,3.53364 -1.2216,3.53362 -0.2817,2.0929 -0.2816,2.09238 0.3106,1.78128 0.31,1.78128 0.3116,1.04283 0.3116,1.04283 0.9514,1.00872 0.9509,1.00823 h 0.6898 l -5e-4,5e-4 h 0.6899 l 0.6723,-0.30644 0.6723,-0.30644 0.5178,-0.87747 0.5178,-0.87796 0.263,-1.52808 0.2626,-1.52757 0.308,-3.96875 0.3085,-3.96875 -0.1809,-3.76409 -0.1809,-3.7636 0.155,-0.25114 0.1551,-0.25117 1.386,0.93329 1.3859,0.93276 1.6903,0.76687 1.6904,0.76687 h 0.8738 0.8739 l 0.1633,0.26458 0.1633,0.26459 h 1.0211 1.0206 l 0.088,0.22376 0.088,0.22375 4.0711,-0.35086 4.0711,-0.35089 2.5435,-0.68368 2.5435,-0.68316 1.9844,-0.75964 1.9843,-0.75965 2.7782,-1.22473 2.7781,-1.22422 2.9104,-1.20251 2.9104,-1.20303 3.5016,-1.15237 3.5011,-1.15239 2.3198,-0.41082 2.3192,-0.41085 2.7781,-0.1638 2.7781,-0.1638 1.9844,0.33073 1.9844,0.33123 1.1829,0.39637 1.1834,0.39688 1.3797,0.63095 1.3793,0.63148 h 0.1679 0.168 l 1.3658,1.12448 1.3652,1.12448 2.0738,1.80041 2.0743,1.80094 0.9715,-0.0811 0.9721,-0.0806 0.3379,-0.70898 0.338,-0.7085 -0.4325,-1.08106 -0.4326,-1.08056 -2.3549,-2.21692 -2.3554,-2.21744 -1.6495,-0.85162 -1.6495,-0.85214 -1.6294,-0.62013 -1.6293,-0.6201 -1.678,-0.3855 -1.6779,-0.38603 -3.0851,-0.3261 -3.0845,-0.32607 -2.8686,0.30954 -2.868,0.31006 -1.1907,0.25218 -1.1906,0.2527 -1.9844,0.42944 -1.9843,0.42892 -2.6459,0.79735 -2.6458,0.79737 -3.4396,1.14308 -3.4396,1.14308 -3.4396,1.07231 -3.4395,1.07227 -1.9844,0.42426 -1.9844,0.42426 -2.6458,0.0915 -2.6459,0.092 -1.5838,-0.37105 -1.5839,-0.37049 -1.8712,-0.92501 -1.8707,-0.92451 -1.5058,-1.36684 -1.5059,-1.36633 -0.7772,-1.62058 -0.7778,-1.62057 -0.3198,-1.50738 -0.3204,-1.50741 0.462,-2.32649 0.462,-2.326452 0.771,-1.69966 0.7705,-1.69963 0.9079,-1.34564 0.9075,-1.34567 1.1399,-1.21492 1.1395,-1.21541 1.4552,-1.0754 1.4552,-1.0759 1.7198,-0.70176 1.7198,-0.70228 2.1167,-0.185 2.1166,-0.18552 2.5136,0.29972 2.5135,0.29921 1.5844,0.46818 1.5844,0.46818 1.0186,0.53126 1.0185,0.5307 0.1473,0.38396 0.1473,0.38397 -0.6977,2.15696 -0.6981,2.15696 -0.2661,1.42526 -0.2667,1.4247 v 1.29554 1.295532 l 0.3933,0.94051 0.3927,0.94102 0.3349,-0.1111 0.3343,-0.1111 0.4124,-1.962682 0.4124,-1.96268 0.3514,-1.05833 0.3514,-1.05833 0.6625,-1.32292 0.6619,-1.32292 1.6573,-1.62676 1.6573,-1.62626 1.6794,-0.93276 1.679,-0.93277 2.3812,-0.68831 2.3813,-0.68781 3.7553,-0.0104 3.7559,-0.01 2.7264,0.82888 2.727,0.82889 2.4541,1.46968 2.4541,1.46915 1.9126,1.91929 1.913,1.91873 1.0212,1.95027 1.0211,1.95027 0.3746,1.322922 0.3752,1.32292 0.1607,3.483 0.1607,3.4835 0.2331,0.35296 0.2325,0.35345 0.4186,-0.52916 0.4181,-0.52917 0.4682,-1.06608 0.4681,-1.06559 0.4316,-1.89703 0.4314,-1.89651 v -1.79991 -1.799882 l -0.2728,-1.68309 -0.2734,-1.68312 -0.555,-1.62417 -0.5555,-1.6242 -0.6615,-1.32292 -0.662,-1.32292 -1.1828,-1.5875 -1.1829,-1.5875 -1.4092,-1.32291 -1.4092,-1.32292 -0.2626,-3.70417 -0.262,-3.70416 -0.4599,-1.45521 -0.4594,-1.45521 -0.9751,-1.32292 -0.9751,-1.32291 -1.032,-1.01182 -1.0315,-1.01132 -1.1028,-0.65474 -1.1027,-0.65423 -1.4434,-0.50745 -1.4433,-0.50747 -2.3487,-0.2713 -2.3487,-0.2713 -4.8948,-0.26819 -4.8948,-0.2682 -1.3771,-0.37778 -1.3772,-0.37824 -0.9224,-0.4377 -0.9225,-0.4377 -0.4428,-0.67543 -0.4424,-0.67541 0.1287,-1.13998 0.1281,-1.13945 0.8594,-1.66762 0.8594,-1.66759 0.97,-1.45521 0.9694,-1.45521 1.1808,-1.97662 1.1814,-1.97715 0.5818,-1.72701 0.5819,-1.72755 -0.2108,-0.21188 z m -12.2499,11.84373 0.1514,0.15142 0.1509,0.1509 -0.5116,1.01801 -0.5116,1.01803 -0.3286,1.39579 -0.3287,1.39628 0.1638,0.87231 0.1633,0.8723 0.7514,1.171 0.7514,1.17149 1.4283,0.84233 1.4283,0.84283 2.1167,0.43823 2.1167,0.43873 3.624,0.21963 3.6246,0.22013 2.5931,0.30801 2.5937,0.30797 2.7362,0.65217 2.7368,0.65268 2.0257,1.05833 2.0263,1.05833 1.1085,1.08366 1.1089,1.08415 0.786,1.48156 0.786,1.48209 0.1282,0.79375 0.1282,0.79375 0.186,0.71726 0.186,0.71729 -0.4894,-0.10128 -0.4888,-0.10182 -1.8521,-0.76636 -1.8521,-0.76584 -1.7198,-0.51109 -1.7198,-0.51057 -3.9687,0.0119 -3.9688,0.0113 -1.7198,0.47389 -1.7198,0.47387 -1.3229,0.56534 -1.3229,0.56533 -1.7198,1.04077 -1.7198,1.04076 -1.927,1.67844 -1.9265,1.67846 -0.1902,-0.0202 -0.1896,-0.0202 -2.3813,-1.1689 -2.3812,-1.16893 -2.0226,-0.51263 -2.0226,-0.51313 -2.0315,-0.28269 -2.0313,-0.28215 h -2.4578 -2.4577 l -0.5519,-1.44229 -0.5519,-1.4423 -0.3023,-1.66656 -0.3023,-1.66656 0.1834,-1.71979 0.184,-1.71979 0.7705,-2.11407 0.771,-2.1141 0.8935,-1.32549 0.8935,-1.32551 1.4169,-1.48621 1.417,-1.48622 1.7198,-1.30482 1.7198,-1.30485 1.9844,-1.18027 1.9843,-1.18081 0.7271,-0.37259 z m 1.0594,1.14774 h 0.1323 0.1323 v 0.13229 0.13229 h -0.1323 -0.1323 v -0.13229 z m -10.6273,7.44141 -0.4408,0.13951 -0.4413,0.14004 -0.5844,0.27906 -0.5845,0.27959 -0.5302,1.12757 -0.5302,1.12808 -0.5581,2.0743 -0.5586,2.07481 0.025,2.38125 0.025,2.38125 0.4289,1.39476 0.4289,1.39525 0.9131,0.8015 0.9126,0.8015 0.306,-0.10747 0.3059,-0.10697 -0.059,-2.15905 -0.058,-2.15906 -0.2713,-0.50641 -0.2713,-0.50694 0.1106,-2.35696 0.1101,-2.35696 0.648,-1.96165 0.6475,-1.96112 0.1669,-0.70694 0.1669,-0.70641 -0.154,-0.401 z m 24.0528,21.92734 -1.8252,0.65836 -1.8252,0.65836 -0.8511,0.44027 -0.8511,0.44029 -1.3896,1.04852 -1.3891,1.04902 -1.0418,1.56065 -1.0423,1.56009 -0.4144,1.42629 -0.4145,1.42626 v 1.959052 1.95906 l 0.3308,0.41701 0.3307,0.41703 0.3969,0.12713 0.3968,0.12714 0.4631,-0.23823 0.463,-0.23823 v -1.1684 -1.1679 l 0.2914,-1.402502 0.292,-1.40198 0.8284,-1.32292 0.8278,-1.32291 0.5339,-0.56224 0.5338,-0.56277 1.3472,-0.90951 1.3472,-0.91 2.0924,-0.71366 2.0923,-0.71417 0.6594,-0.33642 0.6599,-0.33641 0.091,-0.47387 0.091,-0.47334 -0.4615,-0.50954 -0.461,-0.50953 h -1.0516 z m -32.7582,5.51386 -0.9834,0.50231 -0.9829,0.50282 -0.8423,1.24177 -0.8418,1.24126 -0.5633,1.50482 -0.5627,1.504822 -0.1453,1.99781 -0.1447,1.99782 0.2962,1.5875 0.2956,1.5875 0.7064,1.39682 0.7059,1.39731 1.2841,1.20097 1.2837,1.20097 1.5131,0.70229 1.513,0.70175 1.9844,0.32248 1.9844,0.32244 1.9844,-0.13538 1.9843,-0.13539 0.9876,-0.2553 0.9875,-0.25477 0.2693,-0.50281 0.2692,-0.50279 v -0.54676 -0.54673 l -0.1985,-5.1e-4 -0.1984,-5.3e-4 -3.5719,-0.26871 -3.5719,-0.26871 -1.3229,-0.43304 -1.3229,-0.43307 -0.926,-0.59066 -0.9261,-0.59012 -0.6997,-0.75758 -0.6997,-0.75759 -0.5276,-1.19062 -0.5276,-1.19063 -0.1829,-1.1126 -0.183,-1.11259 0.3142,-1.53324 0.3147,-1.533235 0.1985,-0.264587 0.1984,-0.26458 0.6987,-2.05311 0.6992,-2.05259 v -0.64336 -0.64389 l -0.2739,-0.16899 z m 59.2848,10.096562 h 0.1322 0.1323 v 0.13229 0.13229 h -0.1323 -0.1322 v -0.13229 z m -63.7646,7.9375 h 0.1323 0.1323 v 0.13229 0.13229 h -0.1323 -0.1323 v -0.13229 z m 16.9333,0.26458 h 0.1323 0.1323 v 0.13229 0.13229 h -0.1323 -0.1323 v -0.13229 z m -14.5102,9.65729 -0.021,0.50694 -0.021,0.50694 0.1597,-0.15967 0.1602,-0.15968 -0.139,-0.34726 z m 0.2227,1.45521 v 0.13229 0.13229 h 0.1323 0.1323 v -0.13229 -0.13229 h -0.1323 z m 4.4979,0 v 0.13229 0.13229 h 0.1323 0.1323 v -0.13229 -0.13229 h -0.1323 z m -4.2333,0.79375 v 0.13229 0.13229 h 0.1323 0.1323 v -0.13229 -0.13229 h -0.1323 z m 4.4979,0 v 0.13229 0.13229 h 0.1323 0.1323 v -0.13229 -0.13229 h -0.1323 z m 0.2646,0.44079 v 0.35296 0.29559 l 0.061,-0.004 0.1152,-0.11525 0.1762,-0.17621 -0.1762,-0.17674 z m -4.4979,0.26459 v 0.35295 0.35243 l 0.1762,-0.17622 0.1762,-0.17621 -0.1762,-0.17674 z m -12.9646,12.78837 h 0.1323 0.1323 v 0.13229 0.13229 h -0.1323 -0.1323 v -0.13229 z m 9.0093,3.86178 -0.7344,0.25167 -0.7343,0.25164 -0.6077,1.22473 -0.6082,1.22423 -0.2847,1.81848 -0.2848,1.81798 0.1499,2.91042 0.1504,2.91041 0.541,1.45521 0.5405,1.45521 0.5618,0.46302 0.5617,0.46302 h 0.4764 0.4765 l 0.662,-0.78703 0.6625,-0.78703 0.4428,-1.92495 0.4434,-1.92495 -0.01,-2.79878 -0.01,-2.79932 -0.5427,-1.95699 -0.542,-1.95697 -0.6553,-0.65526 z m -7.5272,14.6332 -0.801,0.0791 -0.8005,0.0785 -0.5632,1.0077 -0.5633,1.00719 -0.3457,1.50635 -0.3457,1.50638 v 2.91713 2.91714 l 0.3405,1.44849 0.3406,1.44849 0.3555,0.70228 0.355,0.70228 0.4217,0.4222 0.4222,0.42219 h 0.3566 0.356 l 0.4305,-0.16536 0.431,-0.16536 0.6268,-1.23765 0.6274,-1.23713 0.3229,-2.21073 0.3235,-2.21073 -0.1483,-2.28666 -0.1483,-2.28721 -0.5726,-1.70636 -0.572,-1.70635 -0.4269,-0.47593 z" />
    <path
       id="path1471"
       style="fill:#653a74;fill-opacity:1;stroke-width:0.264583"
       d="m 535.36193,120.91493 0.9121,3.07112 0.9126,3.07165 0.1287,0.20929 0.1292,0.20878 1.9834,5.75366 1.9828,5.75312 0.2304,0.79375 0.2305,0.79375 1.494,4.23334 1.494,4.23333 0.3478,1.05833 0.3483,1.05834 1.1937,3.30729 1.1937,3.30729 0.9312,2.51354 0.9307,2.51354 1.7715,4.89479 1.7709,4.8948 2.2376,5.95312 2.2376,5.95313 1.0242,2.64583 1.0248,2.64583 1.5012,3.83646 1.5017,3.83646 1.0619,2.38125 1.062,2.38125 0.2847,0.35811 0.2853,0.35814 0.9844,-0.13179 10e-4,0.001 0.9845,-0.1323 0.5302,-0.49403 0.5302,-0.49403 0.5509,-1.28415 0.5503,-1.28416 0.6775,-2.01951 0.6769,-2.02004 0.3644,-0.79375 0.3643,-0.79375 0.5622,-1.45521 0.5628,-1.45521 1.0485,-2.91041 1.049,-2.91042 0.7953,-2.38125 0.7953,-2.38125 0.2455,-0.52917 0.2455,-0.52916 0.8102,-2.51354 0.8098,-2.51355 1.9508,-5.95312 1.9508,-5.95313 1.3689,-4.36562 1.3694,-4.36562 0.7561,-2.38125 0.7565,-2.38125 0.433,-1.45521 0.4326,-1.45521 1.017,-3.57188 1.0169,-3.57187 0.6951,-2.24896 0.695,-2.24896 0.5163,-2.47631 0.5162,-2.47634 v -0.43408 -0.4341 l -0.247,-0.38963 -0.2465,-0.39015 -0.6615,0.62166 -0.6614,0.62114 -1.2341,2.8112 -1.2345,2.8112 -1.4206,4.36562 -1.4206,4.36563 -0.2816,0.79375 -0.2812,0.79375 -1.8613,5.55625 -1.8614,5.55624 -0.2336,0.52917 -0.2331,0.52917 -1.3482,3.96875 -1.3477,3.96875 -0.414,1.19062 -0.4134,1.19063 -0.6232,1.71979 -0.6232,1.71979 -1.574,4.49792 -1.5741,4.49791 -0.6878,1.85209 -0.6879,1.85208 -0.4222,1.05833 -0.4216,1.05834 -0.2253,0.52916 -0.2259,0.52917 -1.0665,2.49547 -1.0672,2.49545 -0.4278,0.6532 -0.4279,0.65318 -0.7814,-1.82573 -0.7813,-1.82574 -1.0211,-2.64583 -1.0207,-2.64583 -1.5151,-4.10104 -1.5152,-4.10105 -1.004,-2.77812 -1.0046,-2.77813 -0.9535,-2.64583 -0.9534,-2.64583 -0.2429,-0.52917 -0.2423,-0.52917 -1.8562,-5.13508 -1.8563,-5.13509 0.3235,-0.38962 0.3235,-0.38965 2.1219,-1.59526 2.1213,-1.59472 2.1807,-2.10376 2.1802,-2.10375 0.4078,0.15658 0.4077,0.15658 1.6175,0.4191 1.6169,0.4191 2.0123,0.2589 2.0123,0.25942 1.2568,0.15399 1.2567,0.15451 v 0.34571 0.34573 l -1.5492,1.9358 -1.5493,1.93527 -1.0015,1.01803 -1.002,1.01751 -0.7441,-0.14883 -0.7442,-0.14883 -3.0447,-1.35339 -3.0448,-1.35393 -0.2744,0.16949 -0.2749,0.17003 v -0.28009 -0.28062 h -0.3969 -0.3969 v 0.24495 0.24495 l 1.1245,0.67284 1.1245,0.67334 2.5703,1.26502 2.5704,1.26452 0.01,0.31782 0.01,0.31782 -1.6536,1.58128 -1.6537,1.58184 -1.7198,1.34615 -1.7198,1.34617 -1.1244,0.95449 -1.1245,0.95445 v 0.36949 0.36897 l 0.7276,-0.1664 0.7276,-0.16693 1.3808,-0.61338 1.3808,-0.61391 1.2588,-0.86662 1.2594,-0.86611 0.5255,-0.40876 0.5256,-0.40928 2.0474,-1.9513 2.0469,-1.95181 2.1353,0.43045 2.1347,0.42995 h 1.6821 1.6821 l 0.3111,-0.37515 0.3116,-0.37518 -1.5359,-0.28628 -1.5358,-0.28631 -1.1906,-0.24545 -1.1906,-0.24545 -0.7276,-0.15659 -0.7276,-0.15607 v -0.2186 -0.2191 l 1.6226,-2.22364 1.6232,-2.22364 0.8092,-1.12448 0.8093,-1.12448 0.8092,-0.0196 0.8087,-0.0196 0.6615,-0.13332 0.6615,-0.13333 0.3968,-0.0708 0.3969,-0.0703 -0.012,-0.50438 -0.012,-0.50384 -0.3189,0.0661 -0.3188,0.0661 v -0.24599 -0.24648 l -0.5954,-0.0848 -0.5953,-0.0842 0.058,-1.38906 0.057,-1.38907 h -0.3566 -0.3566 l -1.125,1.49035 -1.1255,1.49037 -2.1476,-0.17777 -2.1477,-0.17778 -2.7781,-0.66765 -2.7782,-0.66818 -0.4671,-0.13488 -0.4677,-0.13436 0.5881,-0.84076 0.5876,-0.84079 1.7673,-2.13062 1.7678,-2.13061 3.1389,0.46406 3.1393,0.46405 2.7993,0.18293 2.7993,0.18294 0.971,-0.18191 0.971,-0.1819 v -0.36949 -0.36949 l -0.2377,-0.14676 -0.2372,-0.14677 -1.9456,-0.24492 -1.9451,-0.24445 -2.5135,-0.30229 -2.5136,-0.30231 -1.3891,-0.38759 -1.389,-0.38756 0.01,-0.32298 0.01,-0.3235 0.8495,-1.35805 0.8496,-1.35856 1.8097,-2.98432 1.8092,-2.98431 0.1436,-0.88265 0.1432,-0.88315 h -0.2744 -0.2744 l -1.0056,1.38906 -1.0057,1.38906 -0.8712,1.28313 -0.8713,1.28365 v 0.10284 0.10232 l -0.3886,0.46611 -0.3886,0.46612 -1.3379,1.91823 -1.3384,1.91823 h -0.3602 -0.3602 l -2.2128,-0.64183 -2.2123,-0.6418 -2.3316,-0.84439 -2.3316,-0.84439 0.1659,-0.43204 0.1658,-0.43201 1.1519,-1.71979 1.1524,-1.71979 0.1715,-0.59532 0.1716,-0.59531 h -0.323 -0.3235 l -2.1104,2.24896 -2.1105,2.24896 h -0.2656 -0.2651 l -2.1192,-1.07953 -2.1188,-1.0795 -0.5576,-0.30956 -0.5576,-0.30954 -0.1323,-0.16536 -0.1323,-0.16537 -1.3084,-0.82682 -1.3084,-0.82682 h -0.213 -0.2129 v 0.37052 0.37002 l 1.4046,1.28363 1.4051,1.28312 2.2991,1.40975 2.2996,1.4092 -0.01,0.17777 -0.01,0.17828 -1.5204,1.10278 -1.5203,1.10329 -0.787,0.34882 -0.787,0.34933 -0.291,0.27493 -0.2909,0.27543 0.3012,0.25683 0.3013,0.25734 0.3023,0.0599 0.3023,0.0605 1.0103,-0.42167 1.0103,-0.42169 1.7942,-1.16014 1.7942,-1.15962 h 0.508 0.508 l 2.0634,0.90641 2.0634,0.90691 2.3151,0.73279 2.3152,0.73277 v 0.42994 0.42995 l -1.7478,2.09807 -1.7477,2.09754 -0.3627,0.51263 -0.3623,0.51263 -1.7926,-0.73277 -1.7922,-0.73226 -2.6458,-1.5875 -2.6458,-1.5875 -0.4594,-0.24339 -0.4594,-0.24289 h -0.136 -0.1358 v 0.37621 0.37672 l 0.6795,0.80772 0.679,0.80716 1.1271,0.76068 1.1265,0.76017 2.2882,1.1126 2.2883,1.1126 0.1602,0.2589 0.1597,0.2594 -2.0712,2.13373 -2.0717,2.1337 -1.6656,1.32914 -1.6655,1.32911 -0.073,-0.0982 -0.073,-0.0982 -1.3524,-3.43958 -1.3524,-3.43958 -2.1435,-5.68855 -2.143,-5.68854 -0.7633,-1.98437 -0.7633,-1.98438 -1.2438,-3.53674 -1.2439,-3.53671 0.3106,-0.19224 0.3101,-0.19172 -1.2707,-0.002 -1.2713,-0.002 -0.6614,-0.15711 -0.6615,-0.15658 -0.8263,-0.25217 z m 56.0251,7.08742 h 0.1323 0.1323 v 0.13229 0.13229 h -0.1323 -0.1323 v -0.13229 z m -44.2671,8.91418 0.1886,0.30541 0.1886,0.30541 h 0.1168 0.1168 v -0.11679 -0.11626 l -0.3054,-0.18915 z m 34.2129,1.05214 v 0.35242 0.35296 l 0.1762,-0.17621 0.1768,-0.17675 -0.1768,-0.17621 z m -5.8208,5.90867 h 0.1323 0.1323 v 0.1323 0.13229 h -0.1323 -0.1323 v -0.13229 z m 0,2.29341 0.1762,0.17622 0.1767,0.17621 h -0.3529 -0.353 l 0.1768,-0.17621 z m 2.1166,0.61701 h 0.1323 0.1323 v 0.13229 0.13229 h -0.1323 -0.1323 v -0.13229 z m -1.0583,11.92279 -0.3654,0.14057 -0.3653,0.14004 -1.8056,2.43137 -1.8056,2.43086 -1.3348,1.41232 -1.3348,1.41284 -1.7973,1.47122 -1.7978,1.47122 -0.848,0.49043 -0.8485,0.49091 -1.3891,0.69143 -1.389,0.69144 v 0.36586 0.36587 h 1.0438 1.0444 l 1.9937,-1.03145 1.9942,-1.03198 1.6583,-1.32861 1.6583,-1.32808 1.2128,-1.27796 1.2128,-1.27796 0.9375,-1.32292 0.9374,-1.32292 0.694,-1.38028 0.694,-1.38027 v -0.66196 z m -14.5521,13.47721 h 0.1323 0.1323 v 0.13229 0.13229 h -0.1323 -0.1323 v -0.13229 z" />
    <path
       id="path4043"
       style="fill:#cc9600;fill-opacity:1;stroke-width:0.264583"
       d="m 665.61978,34.670211 -0.383,0.14676 -0.3829,0.14727 -0.278,0.51935 -0.2785,0.51985 2.4437,3.01998 2.4438,3.01946 0.6615,0.88831 0.6615,0.88834 0.5493,0.68056 0.5488,0.68006 0.8935,1.32291 0.8934,1.32292 0.3432,0.34986 0.3431,0.34933 0.7106,1.23817 0.71,1.23764 0.7452,0.9643 0.7451,0.96427 v 0.20154 0.20153 l 0.6615,0.86715 0.6615,0.86711 v 0.12145 0.12091 l 1.4701,2.47634 1.4708,2.47634 2.5915,5.29167 2.5921,5.29167 1.34,3.43958 1.34,3.43958 0.7994,2.16318 0.7994,2.16369 1.3157,4.4509 1.3162,4.4514 0.5395,2.51354 0.54,2.51354 0.3762,1.587502 0.3768,1.5875 0.3271,2.116667 0.3266,2.11667 0.06,0.52916 0.06,0.52917 0.3158,2.24896 0.3152,2.24842 0.2853,1.85262 0.2847,1.85208 0.1256,8.86301 0.1256,8.86407 -0.2874,3.43959 -0.2873,3.43958 -0.027,0.39688 -0.028,0.39687 -0.5085,3.96875 -0.5084,3.96875 -0.3918,2.11667 -0.3917,2.11613 -0.4299,1.85261 -0.4305,1.85209 -0.7405,3.04271 -0.7405,3.0427 -0.7054,2.38125 -0.7054,2.38125 -0.087,0.39688 -0.087,0.39687 -1.2217,3.3073 -1.2216,3.30729 -1.0687,2.64583 -1.0686,2.64583 -0.6651,1.45521 -0.6646,1.45468 -1.926,3.83699 -1.9259,3.83646 -0.6274,1.19062 -0.6268,1.19063 -0.1457,0.13229 -0.1458,0.13229 -0.8485,1.52083 -0.8485,1.52085 -2.2536,3.45405 -2.2542,3.45406 0.1551,0.25061 0.1545,0.25064 h -0.3974 -0.3974 l -0.4687,0.79375 -0.4692,0.79375 h -0.2073 -0.2077 v 0.37465 0.37465 l -0.2057,0.0884 -0.2051,0.0878 -2.2423,2.90888 -2.2417,2.90836 -1.0583,1.20353 -1.0583,1.20354 -1.5018,1.70841 -1.5022,1.70895 -2.6138,2.64583 -2.6143,2.64584 -1.972,1.86293 -1.9714,1.86346 -0.8553,0.63201 -0.8547,0.63201 -0.1566,0.49403 -0.1571,0.494 0.3188,0.38396 0.3189,0.38447 h 0.431 v -0.004 h 0.4305 l 1.5875,-1.34824 1.5875,-1.34823 2.5135,-2.46187 2.5135,-2.46187 2.1167,-2.22311 2.1167,-2.22364 0.9425,-1.04179 0.9431,-1.04233 2.1136,-2.51301 2.1141,-2.51355 1.3725,-1.79834 1.372,-1.79782 0.307,-0.58343 0.3069,-0.5829 0.1783,-0.1323 0.1778,-0.13229 1.8991,-2.7926 1.8991,-2.79259 v -0.31626 -0.31626 h 0.2098 0.2098 l 1.6051,-2.71197 1.605,-2.71251 1.2165,-2.12027 1.2165,-2.12029 2.0159,-4.21783 2.0154,-4.21732 0.3545,-0.93793 0.3544,-0.93845 1.0408,-2.51301 1.0408,-2.51407 0.7328,-2.24843 0.7322,-2.24949 0.3938,-0.92551 0.3932,-0.92657 0.088,-0.39635 0.088,-0.39687 0.7891,-2.77813 0.7892,-2.77865 0.9606,-3.90517 0.9607,-3.9052 0.1411,-1.38647 0.1415,-1.38649 0.2403,-0.66147 0.2398,-0.66093 0.3959,-2.8639 0.3958,-2.8634 0.1664,-2.03139 0.1669,-2.03142 0.2067,-1.32239 0.2062,-1.32291 0.093,-3.83699 0.093,-3.83593 -0.068,-6.08594 -0.068,-6.08542 -0.3999,-4.10051 -0.4,-4.10157 -0.262,-1.71979 -0.262,-1.71979 -0.291,-1.5875 -0.2909,-1.5875 -0.215,-1.322917 -0.2149,-1.32291 -0.4496,-1.984375 -0.4491,-1.98437 -0.2207,-1.05834 -0.2201,-1.05833 -0.5566,-2.11667 -0.5565,-2.11666 -1.0625,-3.43959 -1.063,-3.43958 -1.3451,-3.57188 -1.3462,-3.57187 -1.5704,-3.56928 -1.571,-3.56981 -1.4294,-2.85306 -1.4288,-2.85253 -0.9684,-1.77974 -0.9679,-1.77975 -0.4222,-0.66249 -0.4222,-0.66249 -0.3219,-0.52813 -0.322,-0.52814 -0.8527,-1.44177 -0.8521,-1.44229 -1.9864,-2.92333 -1.987,-2.92386 -1.0759,-1.46552 -1.0764,-1.46606 -0.3194,-0.38603 -0.3193,-0.38655 -2.6061,-3.3073 -2.6066,-3.30729 -0.4408,-0.36017 z m -203.8408,0.3271 -0.4103,0.002 -0.4098,0.002 -0.6615,0.83817 -0.6614,0.8377 -0.2646,0.28421 -0.2646,0.28422 -1.4836,1.85208 -1.4831,1.85209 -1.4517,1.98437 -1.4515,1.98438 -2.1286,3.175 -2.1285,3.175 -1.663,2.77812 -1.6624,2.77813 -2.572,5.02708 -2.5714,5.02708 -1.3524,3.23855 -1.3523,3.23858 -1.3038,3.5083 -1.3043,3.50832 -0.9622,3.175 -0.9628,3.175 -0.3787,1.24024 -0.3783,1.24076 v 0.56274 0.56277 l -0.2729,0.51054 -0.2734,0.51006 -0.5467,2.58123 -0.5467,2.58124 -0.3762,1.984382 -0.3762,1.984367 -0.4067,2.51355 -0.4067,2.51354 -0.3819,3.30729 -0.3819,3.30729 -0.2739,6.46163 -0.2744,6.46109 0.2837,6.49883 0.2832,6.49883 0.6485,4.89945 0.6491,4.89892 0.246,0.92604 0.2465,0.92604 0.3183,1.85208 0.3178,1.85209 0.6444,2.64583 0.6439,2.64583 0.4775,1.98438 0.477,1.98437 1.7322,5.15938 1.7327,5.15937 0.9245,2.24896 0.925,2.24896 0.8309,1.98437 0.831,1.98438 2.2882,4.56406 2.2877,4.56406 h 0.215 0.2145 v 0.2739 0.27387 l 1.233,2.17353 1.233,2.17349 1.9879,3.04271 1.988,3.04271 1.7297,2.38125 1.7296,2.38125 1.9745,2.51354 1.9746,2.51354 2.9662,3.3073 2.9668,3.30729 3.5357,3.48247 3.5362,3.48247 1.5875,1.33583 1.5875,1.33586 0.4098,0.01 0.01,0.002 0.4098,0.0103 0.3178,-0.31782 0.3173,-0.31729 v -0.45733 -0.45683 l -0.6924,-0.54467 -0.693,-0.54518 -1.3575,-1.2237 -1.3581,-1.22369 -2.5136,-2.4505 -2.5135,-2.45102 -1.9844,-2.08978 -1.9843,-2.08928 -1.323,-1.56218 -1.3229,-1.56168 -0.433,-0.45318 -0.4331,-0.4527 -0.2284,-0.39119 -0.2284,-0.39118 -0.8645,-1.02786 -0.8646,-1.02732 -1.3648,-1.85208 -1.3647,-1.85209 -0.6889,-0.92604 -0.6888,-0.92604 -1.6459,-2.4262 -1.6459,-2.42621 v -0.23616 -0.23564 l -0.5049,-0.5421 -0.5049,-0.54155 -0.588,-1.16171 -0.5881,-1.16168 -0.4527,-0.66146 -0.4527,-0.66146 -1.4702,-2.77812 -1.4697,-2.77813 -1.0552,-2.11666 -1.0552,-2.11667 -0.662,-1.45521 -0.6615,-1.45521 -1.0929,-2.70682 -1.093,-2.70679 -0.8149,-2.188 -0.815,-2.18797 -0.6356,-2.05052 -0.6356,-2.05052 -0.6749,-2.18281 -0.6754,-2.18282 -0.1147,-0.66145 -0.1148,-0.66146 -0.6516,-2.59363 -0.6516,-2.59366 -0.1204,-0.76377 -0.1204,-0.76378 -0.1318,-0.21444 -0.1318,-0.21447 -0.1654,-1.05834 -0.1658,-1.05833 -0.2589,-1.71979 -0.2589,-1.71979 -0.3835,-2.38125 -0.3834,-2.38125 -0.3406,-2.64583 -0.3405,-2.64584 0.013,-11.24479 0.013,-11.24479 0.4438,-3.175 0.4434,-3.175 0.3974,-2.77813 0.3974,-2.77812 0.3809,-2.116667 0.3798,-2.11666 0.4356,-1.984382 0.4351,-1.98437 0.2419,-0.92605 0.2418,-0.92604 1.3074,-4.6302 1.3075,-4.63021 0.8402,-2.38125 0.8403,-2.38125 1.1937,-3.04271 1.1937,-3.04271 1.0284,-2.19882 1.0289,-2.19832 v -0.15089 -0.15092 l 1.2567,-2.54558 1.2568,-2.54505 0.1323,-0.13229 0.1323,-0.1323 0.7663,-1.4552 0.7664,-1.45521 0.9328,-1.5875 0.9322,-1.5875 2.2397,-3.55172 2.2402,-3.55121 1.0883,-1.54202 1.0883,-1.54151 3.3708,-4.29948 3.3714,-4.29948 v -0.41032 -0.41031 l -0.3178,-0.31729 z m -17.9509,44.31824 -0.1886,0.39687 -0.1886,0.39688 -0.415,0.92604 -0.4149,0.92604 -0.6914,2.24896 -0.6915,2.24896 -0.5126,1.5875 -0.5126,1.5875 -0.816,3.30729 -0.8155,3.30729 -0.3715,1.587502 -0.3716,1.5875 -0.3963,2.248957 -0.3964,2.24896 -0.2754,2.05052 -0.276,2.05052 -0.2584,1.91823 -0.2583,1.91823 -0.2346,4.23333 -0.2342,4.23333 v 1.45521 1.45521 l 0.2228,5.15937 0.2232,5.15938 0.2584,1.98437 0.2589,1.98438 0.4201,3.175 0.4207,3.175 0.3912,2.11666 0.3912,2.11667 0.2428,1.05833 0.2434,1.05834 0.5478,2.38125 0.5478,2.38125 0.8077,2.77812 0.8082,2.77813 0.6635,2.0593 0.6636,2.05981 0.054,0.32144 0.054,0.32195 0.2831,0.52916 0.2832,0.52917 0.3313,1.05833 0.3312,1.05834 1.3219,3.30729 1.3214,3.30729 1.6893,3.4835 1.6893,3.48401 v 0.108 0.1075 l 1.5492,2.7585 1.5493,2.75849 0.5012,0.8578 0.5013,0.85837 h 0.309 v 0.004 h 0.3091 l 0.4185,-0.16074 0.4186,-0.16071 v -0.66558 -0.66612 l -1.2108,-1.99419 -1.2102,-1.99369 -1.9291,-3.99251 -1.9286,-3.99251 -0.5653,-1.25523 -0.5654,-1.25521 -1.3374,-3.375 -1.3373,-3.37497 -0.9328,-2.77813 -0.9327,-2.77812 -0.2207,-0.52917 -0.2207,-0.52917 -0.2868,-1.19062 -0.2868,-1.19063 -0.5415,-1.98437 -0.5421,-1.98438 -0.3943,-1.4552 -0.3948,-1.45521 -0.3726,-1.98438 -0.3731,-1.98437 -0.1287,-0.66146 -0.1292,-0.66146 -0.5695,-3.43958 -0.57,-3.43958 -0.1121,-1.32292 -0.1121,-1.32292 -0.3142,-2.64583 -0.3142,-2.64583 v -7.80521 -7.80521 l 0.3168,-2.64583 0.3162,-2.64584 0.1308,-1.4552 0.1302,-1.45521 0.3974,-2.24895 0.3969,-2.24896 0.3948,-2.1332 0.3948,-2.132697 0.5607,-2.232932 0.5601,-2.23242 0.3385,-1.32292 0.3385,-1.32291 0.5881,-1.98438 0.5886,-1.98437 1.0516,-3.11145 1.0516,-3.11145 -0.084,-0.72501 -0.083,-0.72501 h -0.6325 z m 239.8702,0.3302 -0.5504,0.17468 -0.5509,0.17465 -0.1591,0.41444 -0.1592,0.41445 1.1674,3.47834 1.1674,3.47782 0.8345,3.0427 0.8346,3.04271 1.0345,5.027092 1.0346,5.027077 0.4196,3.43958 0.4196,3.43958 0.2135,1.5875 0.2129,1.5875 0.1033,3.04271 0.1034,3.04271 -0.043,6.46938 -0.043,6.46938 -0.2811,2.52645 -0.2806,2.52645 -0.1463,1.45521 -0.1457,1.45521 -0.5369,3.175 -0.5364,3.175 -0.098,0.72038 -0.098,0.72038 -0.1261,0.20566 -0.1266,0.20566 -0.1591,1.05834 -0.1597,1.05833 -0.2879,1.32292 -0.2878,1.32291 -0.3793,1.32292 -0.3793,1.32292 -0.7638,2.77812 -0.7633,2.77813 -1.0531,3.0427 -1.0532,3.04271 -0.9679,2.51354 -0.9684,2.51355 -0.846,1.85208 -0.8459,1.85208 -2.2097,4.36563 -2.2091,4.36562 -0.9002,1.48984 -0.8997,1.48985 v 0.54776 0.54724 l 0.447,0.25064 0.447,0.25011 0.3431,-0.13176 h -0.01 l 0.3437,-0.13179 0.9389,-1.49447 0.939,-1.4945 2.3166,-4.63021 2.3172,-4.63021 0.7509,-1.71979 0.7503,-1.71979 1.1173,-2.77813 1.1172,-2.77812 0.9462,-2.77813 0.9462,-2.77812 0.6661,-2.11667 0.6656,-2.11666 0.5633,-2.38125 0.5632,-2.38125 0.6103,-2.64584 0.6098,-2.64583 0.2832,-1.5875 0.2832,-1.5875 0.402,-3.04271 0.4021,-3.04271 0.4408,-3.70416 0.4403,-3.70417 0.01,-7.80521 0.01,-7.8052 -0.3007,-2.77813 -0.3003,-2.77812 -0.2759,-2.11667 -0.276,-2.11667 -0.1178,-0.79374 -0.1173,-0.79375 -0.1638,-1.19063 -0.1638,-1.19062 -0.4,-2.24896 -0.4005,-2.248957 -0.9121,-3.836462 -0.9121,-3.83646 -0.5638,-1.85208 -0.5638,-1.85208 -0.062,-0.32245 -0.062,-0.32248 -0.9601,-2.88044 -0.9597,-2.88094 -0.3421,-0.46717 z" />
  </g>
</svg>
